<?xml version="1.0" standalone="no"?>
<!DOCTYPE svg PUBLIC "-//W3C//DTD SVG 20010904//EN"
 "http://www.w3.org/TR/2001/REC-SVG-20010904/DTD/svg10.dtd">
<svg version="1.0" xmlns="http://www.w3.org/2000/svg"
 width="460.000000pt" height="460.000000pt" viewBox="0 0 460.000000 460.000000"
 preserveAspectRatio="xMidYMid meet">
<metadata>
Created by potrace 1.14, written by Peter Selinger 2001-2017
</metadata>
<g transform="translate(0.000000,460.000000) scale(0.100000,-0.100000)"
fill="#000000" stroke="none">
<path d="M0 4170 l0 -430 90 55 c50 30 114 67 143 81 115 59 215 134 177 134
-5 0 -10 8 -10 18 0 14 -8 18 -32 17 -31 0 -33 2 -36 40 -5 83 -82 324 -108
340 -87 52 -110 74 -129 123 -19 50 -21 52 -57 52 l-38 0 0 -430z"/>
<path d="M366 4577 c-3 -12 -15 -33 -27 -45 -18 -20 -20 -30 -14 -70 4 -26 17
-68 30 -94 20 -39 23 -62 23 -145 0 -54 5 -109 11 -123 5 -14 10 -19 10 -11 1
11 4 11 16 1 35 -29 48 37 19 105 -15 36 -14 82 8 355 3 43 -2 50 -36 50 -27
0 -35 -5 -40 -23z"/>
<path d="M607 4538 c-3 -35 -9 -83 -13 -108 -7 -43 -8 -182 -4 -342 2 -43 8
-85 14 -94 8 -10 33 -17 71 -20 39 -4 63 -11 72 -22 18 -25 -9 -43 -48 -32
-28 8 -49 -2 -29 -15 16 -10 1 -25 -25 -25 -24 0 -51 -32 -41 -49 3 -5 6 -70
7 -145 1 -75 3 -136 4 -136 6 0 91 115 129 175 42 65 60 104 57 123 -1 6 3 12
9 12 5 0 10 5 10 11 0 5 -6 7 -12 3 -7 -5 6 14 30 40 23 27 42 53 42 57 0 5
-29 9 -64 9 l-65 0 -6 43 c-3 23 1 87 10 142 8 55 20 162 27 238 13 165 16
168 93 117 68 -45 75 -40 41 29 l-26 51 -139 0 -139 0 -5 -62z"/>
<path d="M1330 4526 c0 -47 6 -84 15 -102 16 -29 16 -29 14 -4 -3 36 2 107 6
95 2 -5 9 -29 15 -53 9 -35 14 -41 25 -32 10 9 14 7 18 -7 4 -17 5 -17 6 0 1
18 21 25 21 7 0 -5 7 -10 16 -10 11 0 14 -6 9 -22 -6 -17 -4 -20 9 -15 9 4 23
10 31 13 13 5 14 2 5 -21 -13 -34 -13 -65 0 -65 6 0 10 7 10 15 0 8 4 15 9 15
13 0 20 -63 8 -78 -5 -7 -7 -16 -3 -19 4 -4 11 -1 16 7 7 12 12 11 30 -5 l22
-20 -24 -19 c-14 -12 -17 -17 -6 -13 12 4 15 2 12 -7 -3 -8 -1 -17 5 -21 6 -3
11 -1 11 4 0 6 5 11 10 11 11 0 13 -30 4 -54 -10 -25 -37 -20 -29 5 5 14 4 19
-4 15 -7 -5 -9 -1 -5 8 3 9 2 16 -4 16 -16 0 -23 -31 -11 -46 6 -7 42 -45 80
-84 38 -39 85 -95 104 -125 19 -29 46 -66 60 -81 14 -15 25 -30 25 -34 0 -4
38 -40 85 -81 46 -40 82 -75 80 -78 -3 -2 -14 4 -25 14 -38 34 -47 15 -38 -80
6 -68 12 -93 28 -110 11 -12 20 -24 20 -27 0 -7 -95 -17 -240 -24 -130 -7
-299 9 -312 28 -6 10 -8 10 -8 1 0 -7 -5 -13 -11 -13 -5 0 -7 5 -4 10 3 6 -1
17 -9 25 -14 14 -17 14 -35 -2 -11 -9 -18 -20 -15 -25 3 -5 1 -7 -4 -6 -11 3
-92 -61 -92 -73 0 -4 11 -6 24 -3 14 2 27 0 30 -4 3 -5 33 -5 68 -1 157 19
292 21 348 6 30 -8 88 -21 128 -28 68 -12 101 -28 74 -37 -7 -2 -12 -8 -12
-14 0 -10 48 -6 123 8 23 5 27 2 28 -18 0 -15 3 -18 6 -8 10 26 26 30 93 23
86 -8 111 -18 103 -39 -5 -14 -2 -16 18 -11 13 4 27 7 31 7 8 0 -2 40 -11 40
-4 0 -15 14 -25 31 -16 28 -22 31 -52 26 l-34 -6 3 37 c2 20 0 50 -6 65 -16
47 -1 41 36 -15 19 -29 46 -64 59 -78 28 -29 88 -117 88 -129 0 -5 7 -14 15
-21 8 -7 15 -9 15 -5 0 8 -98 206 -157 315 -89 166 -116 219 -158 300 -48 94
-135 279 -135 287 0 6 -57 126 -168 356 l-77 157 -192 0 -193 0 0 -74z m330
-320 c0 -11 -19 -15 -25 -6 -3 5 1 10 9 10 9 0 16 -2 16 -4z m260 -366 c0 -5
-5 -10 -11 -10 -5 0 -7 5 -4 10 3 6 8 10 11 10 2 0 4 -4 4 -10z m-30 -60 c0
-5 -2 -10 -4 -10 -3 0 -8 5 -11 10 -3 6 -1 10 4 10 6 0 11 -4 11 -10z m280
-295 c0 -5 -5 -3 -10 5 -5 8 -10 20 -10 25 0 6 5 3 10 -5 5 -8 10 -19 10 -25z"/>
<path d="M1770 4538 c16 -33 34 -66 40 -72 5 -5 10 -14 10 -19 0 -5 24 -59 54
-121 29 -61 68 -142 86 -181 17 -38 42 -92 55 -120 13 -27 31 -72 41 -98 9
-27 25 -58 33 -70 9 -12 36 -65 61 -117 24 -52 48 -100 53 -107 39 -51 229
-443 231 -475 0 -14 4 -24 8 -22 4 3 10 -7 14 -21 3 -14 11 -25 16 -25 6 0 7
8 3 18 -3 9 -14 46 -24 82 -10 36 -30 92 -44 125 -24 57 -49 156 -28 110 5
-11 12 -28 15 -37 3 -10 15 -18 26 -18 21 0 28 -16 9 -22 -7 -2 -5 -9 5 -17
14 -12 16 -12 10 4 -5 13 -4 16 4 11 9 -5 11 2 8 25 -2 20 4 45 15 64 11 16
19 40 19 53 0 13 7 25 18 28 9 3 29 11 44 19 25 12 37 10 137 -25 147 -52 147
-52 146 -94 -2 -44 -46 -87 -117 -114 l-50 -19 28 -22 c16 -13 27 -24 24 -26
-3 -2 -1 -7 4 -12 5 -5 6 -3 2 5 -12 21 4 13 68 -31 33 -24 68 -46 76 -49 25
-9 129 -97 214 -180 45 -44 84 -74 90 -70 12 7 16 8 69 18 33 6 37 5 31 -11
-6 -16 -3 -17 22 -10 16 4 52 8 79 9 28 0 56 5 63 9 8 6 12 1 12 -16 0 -17
-16 -34 -65 -68 -36 -24 -75 -48 -85 -54 -11 -5 -20 -14 -20 -20 0 -5 -5 -3
-10 5 -8 12 -10 12 -10 1 0 -8 20 -49 44 -91 93 -161 127 -246 174 -440 85
-348 98 -664 37 -940 -16 -72 -94 -298 -119 -345 -17 -32 -21 -65 -8 -65 5 0
15 -26 22 -57 7 -32 20 -69 29 -83 19 -28 52 -113 71 -180 7 -25 16 -54 21
-65 5 -11 17 -45 25 -75 8 -30 19 -68 24 -85 18 -61 38 -145 34 -145 -5 0 -55
51 -79 81 -11 13 -36 36 -55 51 -63 47 -87 72 -132 143 -25 39 -68 92 -96 119
l-51 50 -23 -30 c-12 -16 -43 -51 -67 -77 l-44 -48 32 -97 c33 -97 55 -145 79
-170 6 -7 12 -20 12 -28 0 -8 4 -14 9 -14 5 0 14 -12 20 -27 6 -16 15 -35 20
-43 8 -13 16 -31 26 -60 14 -41 -22 -39 676 -40 l659 0 0 853 0 854 -72 5
c-51 4 -84 12 -110 28 -36 21 -38 25 -38 70 0 27 5 50 11 52 9 3 9 9 0 25 -6
12 -11 33 -11 47 0 14 -4 26 -8 26 -4 0 -15 13 -25 29 -14 25 -15 33 -4 59
l12 30 24 -19 c13 -10 19 -19 15 -19 -5 0 3 -8 17 -18 14 -9 42 -33 63 -52 21
-19 47 -37 59 -40 17 -4 23 -15 25 -42 2 -20 12 -44 23 -54 19 -17 19 -9 17
897 l-3 914 -70 13 c-38 7 -80 13 -92 13 -13 -1 -23 4 -23 10 0 8 -13 9 -42 4
-24 -4 -54 -7 -68 -6 -40 3 -161 -20 -155 -29 3 -4 -3 -6 -14 -3 -11 3 -21 -2
-24 -11 -4 -9 -16 -16 -27 -16 -12 0 -19 -4 -15 -10 3 -5 -3 -18 -13 -28 -32
-32 -34 -52 -10 -73 21 -17 165 -69 233 -84 51 -11 134 -56 160 -87 15 -18 25
-42 25 -62 0 -27 -7 -38 -44 -64 -24 -18 -49 -32 -54 -32 -6 0 -13 -9 -17 -20
-4 -13 7 -38 34 -79 23 -33 41 -64 41 -70 0 -5 8 -23 17 -39 16 -27 16 -31 1
-55 -14 -19 -28 -26 -74 -32 -31 -4 -73 -12 -93 -20 -48 -17 -144 -13 -208 9
-60 20 -68 33 -44 70 11 16 16 38 13 52 -4 22 -8 24 -36 18 -17 -3 -35 -10
-41 -14 -5 -4 -25 -12 -44 -19 -35 -11 -34 -12 -116 32 -18 10 -35 32 -46 59
-14 37 -22 44 -51 49 -38 6 -87 38 -88 57 0 6 -4 12 -10 12 -5 0 -16 13 -25
29 -11 22 -12 37 -5 56 6 15 10 41 10 58 0 31 27 60 57 62 13 0 94 111 86 118
-2 3 -6 38 -7 79 -4 89 -80 328 -105 328 -5 0 -11 9 -14 20 -4 18 0 20 34 20
32 0 39 -3 37 -17 -3 -14 4 -17 39 -14 27 1 51 -3 65 -13 12 -9 33 -16 45 -16
13 0 23 -4 23 -10 0 -5 5 -10 12 -10 6 0 19 -7 29 -16 14 -13 24 -13 58 -4 22
6 47 18 56 26 11 12 26 15 51 11 18 -3 34 -2 34 4 0 15 86 11 100 -6 7 -8 21
-15 31 -15 12 0 16 -5 13 -15 -4 -8 -1 -15 5 -15 6 0 11 5 11 11 0 6 5 7 13 2
6 -4 44 -13 82 -20 39 -6 102 -20 140 -31 39 -12 79 -19 90 -17 11 2 23 4 28
4 4 1 7 113 7 250 l0 250 -45 7 c-25 3 -54 4 -65 1 -11 -3 -23 -1 -26 4 -3 5
-14 9 -25 9 -10 0 -19 4 -19 8 0 5 -22 14 -50 21 -27 7 -50 17 -50 22 0 5 -11
9 -25 9 -13 0 -32 8 -42 18 -10 10 -35 26 -55 36 -21 9 -38 22 -38 28 0 16
-34 -32 -49 -69 -14 -34 -31 -44 -31 -18 0 20 -69 20 -96 0 -10 -8 -29 -15
-41 -15 -12 0 -24 -6 -26 -12 -4 -10 -6 -10 -6 0 -1 17 -58 15 -65 -3 -3 -8
-12 -15 -20 -15 -8 0 -21 7 -30 15 -8 8 -32 15 -55 15 -37 0 -41 3 -41 24 0
19 7 26 30 31 17 4 30 11 30 16 0 5 7 9 15 9 11 0 15 11 15 40 0 29 -4 40 -15
40 -11 0 -15 -11 -15 -40 0 -29 -4 -40 -15 -40 -18 0 -19 12 -4 27 20 20 0 32
-54 31 -61 0 -87 -11 -87 -38 0 -11 -6 -20 -12 -20 -7 0 0 -10 15 -23 26 -20
27 -24 13 -42 -14 -18 -15 -19 -16 -2 0 10 -5 15 -10 12 -23 -14 -160 88 -160
119 0 9 -5 16 -10 16 -6 0 -18 18 -27 40 -10 22 -21 40 -25 40 -5 0 -8 -23 -8
-51 0 -43 -3 -50 -17 -47 -13 2 -21 18 -27 51 l-9 47 -74 0 c-40 0 -73 -3 -73
-7 0 -5 12 -28 25 -53 14 -25 39 -74 56 -110 18 -36 35 -67 38 -70 7 -6 28
-38 42 -67 14 -27 49 -38 49 -15 0 8 -3 12 -7 8 -12 -11 -28 63 -24 110 4 51
21 60 21 11 0 -18 7 -55 16 -81 11 -33 15 -64 11 -99 -5 -35 -2 -56 7 -66 7
-9 19 -32 26 -51 7 -19 20 -43 28 -52 17 -21 13 -47 -11 -62 -15 -9 -22 -6
-38 14 -11 14 -38 47 -59 75 -41 51 -48 71 -29 77 12 4 -14 78 -43 120 -10 14
-18 32 -18 40 0 8 -5 19 -12 26 -7 7 -8 12 -4 12 5 0 -3 15 -16 33 -13 17 -37
57 -52 87 -15 30 -39 65 -52 78 -13 13 -24 27 -24 32 0 6 -27 10 -60 10 -70 0
-93 -16 -103 -68 -8 -40 8 -74 57 -121 20 -19 36 -38 36 -42 0 -5 6 -9 13 -9
6 0 38 -23 70 -52 70 -61 62 -73 -33 -52 -132 29 -413 36 -459 12 -19 -10 -25
-10 -28 0 -7 19 -70 14 -181 -13 -56 -14 -104 -25 -107 -25 -3 0 -5 41 -3 91
l3 91 67 63 c69 65 151 120 166 111 4 -2 14 -1 22 5 10 5 -47 9 -152 9 -143 0
-168 -2 -168 -15 0 -8 -7 -15 -15 -15 -9 0 -12 6 -9 15 8 19 -6 19 -34 -1 -13
-9 -21 -22 -18 -30 3 -8 0 -11 -9 -8 -16 7 -94 -41 -102 -63 -6 -15 -7 -14
-14 3 -4 10 -8 28 -8 39 0 16 2 17 7 4 6 -14 17 -9 72 28 l65 44 -70 -3 c-64
-3 -70 -5 -77 -28 -7 -24 -8 -24 -4 3 l3 27 -138 0 -138 0 29 -62z m1930 -102
c0 -3 -4 -8 -10 -11 -5 -3 -10 -1 -10 4 0 6 5 11 10 11 6 0 10 -2 10 -4z
m-1582 -38 c-6 -18 -28 -21 -28 -4 0 9 7 16 16 16 9 0 14 -5 12 -12z m1127
-198 c3 -5 2 -10 -4 -10 -5 0 -13 5 -16 10 -3 6 -2 10 4 10 5 0 13 -4 16 -10z
m-1008 -67 c-3 -10 -5 -4 -5 12 0 17 2 24 5 18 2 -7 2 -21 0 -30z m10 -90 c-2
-16 -4 -5 -4 22 0 28 2 40 4 28 2 -13 2 -35 0 -50z m91 -333 c0 -147 -6 -123
-10 45 -3 72 -1 117 3 100 4 -16 7 -82 7 -145z m592 -120 c36 -15 93 -38 128
-51 34 -13 75 -34 90 -46 22 -18 25 -25 16 -40 -9 -13 -23 -18 -57 -16 -44 1
-167 48 -167 64 0 4 -36 25 -79 46 -59 29 -80 44 -84 61 -4 23 -3 24 42 17 25
-4 75 -19 111 -35z m-552 -21 c18 9 23 6 41 -23 21 -34 29 -110 12 -120 -5 -3
-20 4 -35 15 -14 11 -26 17 -26 12 0 -4 -5 -1 -10 8 -12 21 -24 128 -12 110 7
-10 14 -10 30 -2z m917 -629 c-3 -5 -11 -10 -16 -10 -6 0 -7 5 -4 10 3 6 11
10 16 10 6 0 7 -4 4 -10z m365 -10 c0 -5 -5 -10 -11 -10 -5 0 -7 5 -4 10 3 6
8 10 11 10 2 0 4 -4 4 -10z m250 -98 c0 -5 16 -27 35 -50 35 -40 40 -42 90
-27 14 4 27 -1 41 -17 26 -29 84 -125 84 -139 0 -5 9 -29 20 -51 11 -23 20
-45 20 -50 0 -18 -43 -6 -68 20 -34 34 -142 102 -163 102 -8 0 -20 5 -27 12
-9 9 -15 8 -25 -7 -8 -10 -19 -15 -26 -11 -6 4 -30 9 -53 12 -49 4 -82 36 -98
92 -12 44 1 69 45 88 19 7 36 17 39 22 7 11 86 15 86 4z"/>
<path d="M1353 4320 c0 -16 5 -27 10 -23 5 3 6 -4 1 -18 -4 -13 -7 -31 -7 -39
1 -8 2 -35 3 -59 2 -29 5 -39 11 -30 6 9 7 -3 3 -31 l-5 -45 17 33 c14 27 19
30 32 20 13 -11 15 -10 9 5 -4 10 -3 16 2 13 7 -5 21 15 21 30 0 10 -29 3 -33
-8 -2 -7 -2 12 0 43 3 48 -1 63 -24 98 -32 49 -40 51 -40 11z m37 -79 c0 -16
3 -38 7 -48 6 -17 6 -17 -10 -2 -9 10 -15 30 -14 48 3 39 17 41 17 2z"/>
<path d="M1570 4230 c0 -5 5 -10 11 -10 5 0 7 5 4 10 -3 6 -8 10 -11 10 -2 0
-4 -4 -4 -10z"/>
<path d="M1543 4193 c1 -18 6 -28 10 -24 4 4 3 18 -2 32 -9 23 -9 22 -8 -8z"/>
<path d="M1456 4181 c4 -16 1 -32 -5 -35 -6 -4 -9 -12 -6 -17 4 -5 2 -9 -4 -9
-5 0 -12 -8 -14 -17 -4 -17 -5 -17 -6 0 -2 29 -16 19 -29 -23 -16 -54 -16 -74
3 -66 9 3 15 0 15 -9 0 -9 12 -3 33 18 19 17 48 44 66 58 29 24 31 29 20 52
-7 15 -17 23 -25 20 -8 -3 -14 1 -14 9 0 7 -9 21 -20 30 -19 17 -19 16 -14
-11z m-4 -103 c-7 -7 -12 -8 -12 -2 0 14 12 26 19 19 2 -3 -1 -11 -7 -17z"/>
<path d="M1092 4079 c-15 -18 -18 -27 -8 -23 11 4 13 0 9 -15 -3 -12 -1 -21 6
-21 6 0 11 -5 11 -10 0 -6 -6 -10 -12 -9 -24 3 -38 -1 -38 -10 0 -5 8 -7 18
-5 12 4 22 -6 35 -37 10 -23 15 -44 12 -47 -3 -3 -5 0 -5 7 0 7 -5 9 -10 6 -8
-5 -7 -11 1 -21 8 -10 8 -14 0 -14 -6 0 -11 -4 -11 -10 0 -23 29 -7 39 21 12
35 4 109 -11 109 -6 0 -8 -7 -5 -15 4 -8 2 -17 -3 -20 -14 -8 -13 28 1 42 8 8
7 17 -5 35 -15 23 -6 62 11 45 4 -5 2 -11 -4 -15 -8 -5 -9 -13 -3 -22 8 -12
10 -12 15 2 8 21 3 51 -10 54 -5 2 -20 -10 -33 -27z"/>
<path d="M1551 4076 c-10 -12 -8 -13 8 -9 12 3 18 9 15 14 -7 12 -10 11 -23
-5z"/>
<path d="M1170 4039 c0 -5 5 -7 10 -4 6 3 10 8 10 11 0 2 -4 4 -10 4 -5 0 -10
-5 -10 -11z"/>
<path d="M1615 4030 c3 -5 8 -10 11 -10 2 0 4 5 4 10 0 6 -5 10 -11 10 -5 0
-7 -4 -4 -10z"/>
<path d="M1478 4016 c-20 -15 -25 -50 -5 -43 6 2 11 9 10 15 -1 5 6 8 16 5 14
-3 20 -16 23 -44 2 -21 0 -40 -5 -42 -4 -1 -5 -10 -2 -20 4 -9 12 -14 18 -10
7 4 8 0 3 -13 -5 -13 -4 -16 3 -9 7 7 8 22 1 44 -11 39 -4 57 15 41 10 -8 14
-7 18 2 4 11 6 10 6 0 1 -7 6 -10 11 -7 14 9 12 -9 -2 -23 -10 -10 -10 -15 0
-21 11 -7 11 -9 -1 -14 -8 -3 -17 -15 -20 -26 -3 -12 -2 -19 3 -16 15 9 60
-20 54 -35 -3 -10 -2 -12 5 -5 12 12 3 57 -10 49 -5 -3 -9 0 -9 6 0 6 -4 8
-10 5 -18 -11 -10 10 16 40 23 27 26 28 21 7 -3 -13 -1 -20 5 -16 5 3 6 19 3
35 -7 29 8 42 18 17 4 -9 6 -9 6 -1 2 19 39 3 45 -20 3 -12 8 -18 12 -14 4 4
1 18 -6 32 -11 20 -20 24 -54 23 -49 -1 -80 11 -121 46 -34 29 -43 31 -67 12z"/>
<path d="M1575 4000 c3 -5 8 -10 11 -10 2 0 4 5 4 10 0 6 -5 10 -11 10 -5 0
-7 -4 -4 -10z"/>
<path d="M1371 3984 c0 -11 3 -14 6 -6 3 7 2 16 -1 19 -3 4 -6 -2 -5 -13z"/>
<path d="M1231 3974 c0 -11 3 -14 6 -6 3 7 2 16 -1 19 -3 4 -6 -2 -5 -13z"/>
<path d="M1420 3951 c0 -5 5 -13 10 -16 6 -3 10 -2 10 4 0 5 -4 13 -10 16 -5
3 -10 2 -10 -4z"/>
<path d="M1080 3920 c0 -19 3 -21 12 -12 9 9 9 15 0 24 -9 9 -12 7 -12 -12z"/>
<path d="M1680 3922 c0 -15 28 -47 36 -40 2 3 -4 16 -15 29 -12 14 -20 18 -21
11z"/>
<path d="M1050 3900 c0 -5 5 -10 10 -10 6 0 10 5 10 10 0 6 -4 10 -10 10 -5 0
-10 -4 -10 -10z"/>
<path d="M1650 3870 c-13 -24 -13 -33 0 -25 6 3 10 1 10 -5 0 -6 5 -8 11 -4 8
4 8 9 0 17 -16 16 -13 27 4 21 8 -4 15 -4 15 -1 0 16 -31 14 -40 -3z"/>
<path d="M1736 3873 c-5 -12 0 -23 13 -35 28 -22 26 -27 -6 -24 -39 5 -40 5
-24 15 8 5 9 11 3 15 -6 3 -13 -3 -17 -14 -4 -11 -11 -17 -17 -14 -6 4 -8 2
-5 -3 4 -6 0 -13 -8 -17 -8 -3 -14 -13 -14 -23 1 -15 2 -15 6 -2 3 11 12 15
29 11 31 -6 42 -22 15 -22 -11 0 -23 -5 -26 -11 -5 -6 9 -9 38 -8 25 2 52 -3
59 -9 13 -10 74 -10 84 1 2 2 -15 23 -37 47 -22 24 -51 59 -64 77 -19 29 -23
31 -29 16z m-16 -73 c0 -5 -7 -10 -16 -10 -8 0 -12 5 -9 10 3 6 10 10 16 10 5
0 9 -4 9 -10z"/>
<path d="M330 3841 c-36 -15 -92 -42 -125 -61 -33 -19 -73 -40 -90 -49 -16 -8
-49 -30 -72 -49 l-43 -34 0 -134 c0 -111 3 -139 18 -166 20 -35 129 -312 144
-365 5 -18 12 -33 17 -33 12 0 45 40 98 120 27 41 68 102 91 135 l41 60 5 255
c3 140 8 272 10 292 8 56 -14 63 -94 29z"/>
<path d="M1095 3829 c-4 -5 -13 -8 -21 -5 -17 6 -17 5 0 -57 l12 -48 16 55
c14 51 10 83 -7 55z"/>
<path d="M1286 3797 c3 -9 11 -17 16 -17 5 0 8 -6 6 -12 -6 -17 21 -43 32 -32
9 10 -2 28 -38 58 -19 17 -22 17 -16 3z"/>
<path d="M1594 3774 c-1 -13 2 -21 7 -18 11 6 12 31 2 37 -5 3 -9 -6 -9 -19z"/>
<path d="M1661 3705 c-26 -26 -24 -32 24 -80 12 -11 27 -32 35 -47 17 -35 22
-35 54 3 16 18 32 29 41 26 21 -9 73 21 81 45 4 15 1 26 -11 34 -21 16 -99 29
-114 20 -6 -4 -24 0 -40 9 -38 19 -41 19 -70 -10z"/>
<path d="M1497 3704 c6 -18 19 -18 26 -1 3 7 -3 13 -14 14 -12 1 -16 -3 -12
-13z"/>
<path d="M1580 3697 c-12 -20 -12 -21 3 -8 15 11 17 11 17 -2 0 -8 -6 -17 -12
-20 -7 -2 -11 -7 -8 -9 3 -3 16 -1 30 4 15 6 20 12 13 15 -7 3 -13 11 -13 18
0 24 -15 25 -30 2z"/>
<path d="M1096 3611 c-7 -10 18 -34 27 -25 3 3 12 -8 21 -24 11 -21 25 -31 46
-34 16 -3 30 -1 30 4 0 4 -7 8 -15 8 -8 0 -33 18 -55 40 -43 43 -46 45 -54 31z"/>
<path d="M1428 3519 l-33 -31 38 27 c20 15 37 29 37 31 0 10 -12 2 -42 -27z"/>
<path d="M1370 3526 c0 -11 -10 -16 -32 -16 -22 0 -29 -3 -22 -10 7 -7 19 -8
36 -1 30 11 43 27 28 36 -5 3 -10 -1 -10 -9z"/>
<path d="M1286 3497 c3 -10 9 -15 12 -12 3 3 0 11 -7 18 -10 9 -11 8 -5 -6z"/>
<path d="M1425 3489 c-4 -6 -5 -12 -2 -15 2 -3 7 2 10 11 7 17 1 20 -8 4z"/>
<path d="M1290 3439 c0 -5 5 -7 10 -4 6 3 10 8 10 11 0 2 -4 4 -10 4 -5 0 -10
-5 -10 -11z"/>
<path d="M1170 3328 c-9 -20 -9 -21 2 -7 7 9 20 18 28 22 12 4 12 6 -2 6 -10
1 -22 -9 -28 -21z"/>
<path d="M2560 3300 c0 -5 7 -10 16 -10 8 0 12 5 9 10 -3 6 -10 10 -16 10 -5
0 -9 -4 -9 -10z"/>
<path d="M1125 3289 c-4 -6 -5 -12 -2 -15 2 -3 7 2 10 11 7 17 1 20 -8 4z"/>
<path d="M2446 3283 c-6 -14 -5 -15 5 -6 7 7 10 15 7 18 -3 3 -9 -2 -12 -12z"/>
<path d="M2635 3260 c3 -5 11 -10 16 -10 6 0 7 5 4 10 -3 6 -11 10 -16 10 -6
0 -7 -4 -4 -10z"/>
<path d="M2460 3251 c0 -6 4 -13 10 -16 6 -3 7 1 4 9 -7 18 -14 21 -14 7z"/>
<path d="M952 3063 l-25 -25 32 -14 c19 -8 49 -14 69 -14 20 0 71 -15 115 -32
66 -27 82 -39 97 -68 25 -49 67 -89 104 -99 17 -4 32 -8 32 -7 6 5 93 136 102
152 10 18 8 20 -21 17 -63 -7 -85 -4 -128 15 -24 11 -65 23 -92 26 -26 3 -64
14 -85 25 -20 10 -68 25 -106 34 l-68 16 -26 -26z"/>
<path d="M2515 3030 c3 -5 8 -10 11 -10 2 0 4 5 4 10 0 6 -5 10 -11 10 -5 0
-7 -4 -4 -10z"/>
<path d="M420 3016 c0 -17 24 -38 33 -29 15 15 6 43 -13 43 -11 0 -20 -6 -20
-14z"/>
<path d="M2480 3000 c0 -5 5 -10 11 -10 5 0 7 5 4 10 -3 6 -8 10 -11 10 -2 0
-4 -4 -4 -10z"/>
<path d="M2750 2980 c-12 -7 -12 -12 -3 -21 10 -10 14 -9 19 5 8 22 2 27 -16
16z"/>
<path d="M3020 2956 c0 -8 6 -16 14 -19 8 -3 13 -14 12 -24 -2 -10 -1 -12 1
-5 3 6 9 12 14 12 6 0 3 7 -5 16 -9 8 -16 20 -16 25 0 5 -4 9 -10 9 -5 0 -10
-6 -10 -14z"/>
<path d="M3080 2893 c0 -36 15 -52 23 -23 3 10 -1 27 -9 37 -12 16 -13 15 -14
-14z"/>
<path d="M634 2754 c-43 -47 -93 -102 -111 -120 -38 -42 -46 -75 -43 -184 2
-63 -9 -143 -22 -156 -14 -14 -16 -11 -21 28 -2 23 -4 143 -3 265 1 239 -1
249 -46 195 -13 -16 -42 -44 -65 -63 -24 -19 -43 -42 -43 -51 0 -29 -69 -73
-113 -73 -23 0 -42 -5 -44 -12 -3 -9 7 -13 31 -13 46 0 76 -29 76 -73 0 -19
-3 -37 -7 -41 -5 -4 -8 -13 -8 -19 0 -7 -8 -13 -18 -15 -15 -3 -18 0 -12 18 5
16 3 21 -6 18 -8 -3 -14 -11 -14 -19 0 -8 -7 -20 -15 -26 -13 -12 -13 -15 2
-27 23 -17 22 -22 -2 -46 -16 -16 -20 -31 -18 -68 l3 -47 -32 3 c-30 2 -33 0
-33 -27 0 -33 -17 -51 -26 -27 -3 9 -12 16 -19 16 -7 0 -16 6 -18 13 -3 6 -6
-424 -6 -956 l-1 -969 23 -19 22 -18 -22 -1 c-23 0 -23 -2 -23 -120 l0 -120
36 0 36 0 -7 37 c-4 21 -13 49 -20 63 -12 24 -10 28 39 81 28 31 59 59 68 62
15 5 16 1 11 -26 -3 -18 -9 -36 -13 -42 -10 -13 -8 -101 3 -111 4 -4 7 -2 7 4
0 7 6 12 13 12 8 0 23 8 35 18 19 17 20 20 5 34 -17 18 -10 38 13 38 8 0 14
-10 14 -25 0 -14 6 -25 13 -25 8 0 7 -4 -3 -10 -13 -9 -13 -10 0 -10 46 0 60
12 60 50 0 21 6 41 13 43 6 3 0 6 -15 6 -18 1 -28 6 -28 16 0 11 11 15 43 15
60 0 84 -9 102 -37 24 -35 6 -49 -35 -28 -22 12 -35 13 -44 6 -14 -12 -14 -83
-1 -138 7 -30 11 -33 46 -33 31 0 38 4 41 22 2 13 11 24 23 26 16 3 18 1 7 -9
-19 -21 -14 -39 12 -39 24 0 46 32 26 38 -5 2 -15 13 -21 23 -8 16 -5 26 21
55 30 35 37 72 12 67 -21 -5 -52 31 -52 59 0 32 7 35 26 11 12 -16 12 -16 7 5
-3 12 -9 22 -14 22 -5 0 -9 8 -9 19 0 10 -7 35 -15 54 -8 20 -15 52 -15 72 0
45 -17 52 -70 31 -52 -20 -66 -20 -74 1 -3 10 -13 29 -21 43 -17 30 -4 50 19
28 8 -9 13 -18 10 -20 -2 -3 2 -11 10 -17 12 -10 16 -8 21 8 4 14 15 21 31 21
26 0 30 13 14 55 -8 22 -12 24 -29 13 -11 -7 -24 -9 -28 -5 -4 5 -1 12 6 16 9
6 11 18 7 37 -6 21 -10 24 -16 14 -7 -11 -11 -11 -24 -1 -22 18 -20 38 3 51
14 7 22 7 26 -1 5 -6 12 -3 22 10 23 34 52 27 69 -16 8 -21 20 -47 26 -58 6
-11 14 -33 18 -50 5 -26 10 -30 36 -26 124 15 304 -4 304 -32 0 -5 7 -15 16
-21 22 -16 0 -66 -26 -59 -10 3 -21 0 -24 -6 -7 -10 -2 -13 33 -15 15 -1 37
-53 27 -63 -6 -7 -22 -7 -170 -1 -82 3 -109 1 -113 -9 -12 -31 17 -40 149 -47
119 -6 135 -9 149 -28 9 -11 19 -16 22 -11 8 13 74 4 88 -13 9 -11 8 -22 -7
-49 -20 -38 -35 -43 -58 -19 -14 14 -17 13 -27 -10 -10 -22 -9 -28 12 -44 22
-19 22 -20 6 -46 -20 -30 -26 -31 -73 -11 -22 9 -42 11 -57 6 -16 -6 -25 -4
-34 8 -10 13 -14 13 -21 3 -5 -7 -16 -10 -25 -6 -20 7 -21 -2 -6 -43 10 -30
11 -30 49 -21 27 7 52 6 87 -3 68 -17 273 -24 273 -8 0 6 -8 18 -17 26 -10 8
-12 12 -5 8 15 -8 16 42 2 100 -6 22 -19 94 -30 160 -30 189 -38 228 -51 260
-6 17 -11 41 -10 54 0 13 -3 40 -9 61 -5 20 -16 72 -24 116 -8 43 -22 113 -31
154 -26 116 -71 334 -120 570 -24 118 -53 242 -65 275 -12 33 -27 80 -34 105
-7 25 -18 55 -23 65 -6 11 -13 36 -16 55 -5 31 -5 32 5 10 5 -14 16 -36 23
-50 7 -14 25 -65 40 -115 15 -49 35 -117 45 -150 25 -82 70 -276 70 -303 0
-12 12 -80 26 -150 14 -70 29 -143 33 -163 4 -19 11 -40 14 -46 4 -7 18 -70
32 -141 13 -71 28 -148 34 -173 5 -24 15 -71 21 -104 6 -33 17 -89 25 -125 8
-36 22 -108 31 -160 9 -52 20 -117 25 -145 6 -27 15 -84 22 -125 l12 -75 360
-2 c314 -2 357 -1 340 12 -11 8 -30 24 -42 36 -31 31 -15 57 65 109 37 24 82
56 100 71 l34 27 56 -30 c60 -32 145 -92 200 -143 19 -16 40 -34 48 -38 18
-11 18 -27 -1 -27 -8 0 -15 -4 -15 -10 0 -7 142 -10 406 -10 285 0 403 3 399
11 -4 6 -14 8 -22 5 -8 -3 -28 1 -44 9 -26 14 -28 18 -18 37 10 19 8 25 -14
42 -49 40 -94 70 -103 70 -5 -1 -17 12 -26 27 -34 57 -68 66 -151 43 -23 -7
-12 -24 17 -24 12 0 27 -5 33 -11 13 -13 6 -42 -8 -33 -5 3 -24 1 -42 -4 -44
-12 -69 1 -63 34 4 20 1 24 -18 24 -13 0 -40 -7 -59 -15 -20 -8 -44 -15 -54
-14 -16 0 -16 1 2 9 19 8 19 9 -2 9 -12 1 -42 7 -65 14 -24 8 -69 22 -100 31
-32 9 -58 21 -58 27 0 5 -3 8 -7 7 -10 -2 -88 37 -125 63 -29 21 -43 24 -33 9
3 -5 0 -7 -9 -4 -8 3 -13 11 -10 18 3 7 -23 33 -56 59 -46 36 -62 44 -66 33
-3 -8 -2 -21 2 -27 5 -9 2 -10 -9 -6 -14 5 -17 0 -17 -24 0 -19 -4 -29 -12
-27 -16 6 -30 60 -18 72 6 6 10 23 10 40 l0 29 23 -19 c19 -17 19 -15 -3 11
-14 16 -32 35 -40 41 -42 34 -54 45 -40 38 8 -4 -1 11 -20 32 -19 21 -39 44
-43 49 -5 6 -6 3 -2 -6 4 -10 0 -16 -10 -16 -8 0 -15 4 -15 8 0 4 -3 15 -7 25
-4 12 -3 15 5 10 17 -10 15 9 -2 23 -11 9 -15 9 -20 -1 -3 -7 -3 -3 0 9 4 18
1 22 -16 20 -15 -1 -20 -6 -16 -20 3 -14 2 -16 -9 -7 -17 14 -32 -7 -16 -23 6
-6 11 -7 11 -2 0 5 7 0 15 -11 8 -10 15 -31 15 -46 0 -15 5 -39 10 -54 8 -20
8 -29 -1 -35 -9 -5 -8 -14 5 -33 14 -22 20 -96 8 -96 -13 0 -69 38 -82 55 -17
24 -15 55 6 71 10 8 13 20 8 38 -9 36 -19 40 -50 20 -22 -15 -27 -15 -35 -3
-21 33 12 56 56 38 25 -10 16 17 -9 30 -16 7 -34 26 -40 42 -5 16 -17 29 -26
29 -13 0 -13 1 0 10 10 6 11 10 3 10 -8 0 -13 13 -13 30 0 17 -3 30 -7 31 -5
0 -19 2 -32 5 -15 3 -29 -2 -37 -13 -12 -16 -13 -16 -14 9 0 38 -16 43 -46 13
-26 -26 -31 -75 -11 -103 7 -9 2 -12 -17 -12 -14 0 -26 6 -26 13 0 8 -4 7 -10
-3 -9 -13 -12 -13 -24 2 -7 10 -12 32 -11 50 1 18 -2 36 -8 40 -8 4 -7 15 1
33 7 14 12 36 12 49 0 13 6 29 14 36 8 6 16 21 18 33 2 16 13 23 46 30 37 7
42 11 42 36 0 37 28 93 43 85 7 -3 5 0 -4 8 -9 7 -14 20 -12 28 4 12 3 12 -5
1 -6 -9 -12 -10 -16 -3 -4 6 -13 9 -20 6 -17 -7 -42 84 -27 99 7 7 8 2 5 -14
-4 -21 -3 -22 4 -4 10 21 6 39 -14 68 -14 21 -27 7 -17 -19 4 -12 3 -15 -5
-10 -8 5 -12 0 -12 -12 0 -30 -32 -37 -52 -12 -10 12 -18 28 -18 36 0 19 36
54 55 54 8 0 15 5 15 10 0 6 -5 10 -10 10 -6 0 -15 11 -22 25 -6 13 -14 22
-19 20 -4 -3 -10 3 -13 12 -3 10 -18 24 -33 30 -35 16 -173 144 -173 161 0 18
16 15 43 -10 33 -32 137 -103 146 -101 5 1 14 -9 21 -22 15 -27 36 -35 26 -9
-3 9 -6 19 -6 24 0 5 -6 15 -13 22 -18 18 -72 200 -102 342 -32 151 -34 300
-5 425 11 47 27 117 36 154 9 38 13 81 9 95 l-7 27 -14 -34 c-18 -43 -18 -50
1 -25 14 19 14 19 15 -3 0 -15 -5 -20 -17 -18 -13 2 -17 10 -15 30 l3 27 -84
-7 c-81 -6 -85 -6 -115 20 -18 15 -32 32 -32 38 0 7 -30 43 -67 80 -69 72 -73
73 -140 52 -18 -6 -23 -3 -23 11 0 29 -20 94 -29 94 -4 0 -43 -39 -87 -86z
m-380 -350 c9 -8 16 -20 16 -26 0 -13 -42 14 -48 30 -5 17 14 15 32 -4z m153
-66 c-3 -8 -6 -5 -6 6 -1 11 2 17 5 13 3 -3 4 -12 1 -19z m-50 -190 c-3 -7 -5
-2 -5 12 0 14 2 19 5 13 2 -7 2 -19 0 -25z m-7 -37 c0 -6 -4 -13 -10 -16 -5
-3 -10 1 -10 9 0 9 5 16 10 16 6 0 10 -4 10 -9z m-110 -308 c-7 -21 -17 -42
-23 -48 -11 -11 -10 -9 14 57 17 49 25 41 9 -9z m-100 -233 c0 -5 -5 -10 -11
-10 -5 0 -7 5 -4 10 3 6 8 10 11 10 2 0 4 -4 4 -10z m950 -46 c0 -8 -5 -12
-10 -9 -6 4 -8 11 -5 16 9 14 15 11 15 -7z m-918 -135 c11 -29 23 -73 27 -97
4 -23 15 -48 23 -55 8 -6 29 -61 48 -121 18 -60 46 -139 63 -175 17 -36 34
-75 38 -86 7 -19 7 -19 8 1 1 15 10 24 26 28 14 4 28 13 32 22 4 11 10 9 30
-12 13 -14 23 -34 21 -43 -2 -9 8 -23 23 -32 30 -19 44 -58 24 -65 -18 -7 -75
23 -75 40 0 16 -21 26 -56 26 -20 0 -24 -5 -24 -29 0 -36 -24 -59 -44 -42 -12
10 -78 205 -105 311 -6 25 -18 68 -27 95 -9 28 -18 65 -21 83 -3 17 -9 32 -14
32 -5 0 -9 13 -9 29 0 15 -4 41 -9 57 -31 99 -12 129 21 33z m1038 47 c12 -15
11 -65 -1 -56 -4 3 -16 -3 -27 -13 -24 -22 -38 -7 -22 22 5 11 10 29 10 40 0
24 22 28 40 7z m-166 -38 c-4 -13 -12 -26 -18 -30 -14 -9 -36 10 -36 33 0 15
7 19 31 19 27 0 30 -3 23 -22z m194 -113 c2 -35 -1 -45 -13 -45 -11 0 -15 10
-15 38 0 36 6 52 19 52 3 0 7 -20 9 -45z m160 10 c-3 -3 -9 2 -12 12 -6 14 -5
15 5 6 7 -7 10 -15 7 -18z m-371 -51 c3 -9 1 -25 -6 -36 -10 -16 -8 -24 9 -45
16 -20 19 -34 14 -57 -4 -17 -7 -39 -6 -48 0 -10 -4 -18 -10 -18 -6 0 -8 3 -5
7 4 3 2 12 -4 19 -7 8 -7 14 0 19 6 3 -4 21 -25 42 -26 25 -33 38 -25 46 6 6
11 21 11 33 0 49 32 75 47 38z m149 -42 c0 -27 -4 -42 -12 -42 -7 0 -14 -16
-16 -37 -4 -44 -20 -52 -38 -18 -12 22 -11 27 8 44 16 13 22 30 22 60 0 35 3
42 18 39 13 -2 17 -14 18 -46z m152 13 c8 -7 -21 -140 -35 -162 -8 -13 -23
-23 -36 -23 -13 0 -28 -5 -34 -11 -8 -8 -17 -8 -32 0 -26 15 -27 26 0 44 13
10 23 30 26 56 3 22 9 39 13 36 4 -2 5 7 2 20 -8 46 4 58 50 51 23 -4 44 -9
46 -11z m129 -75 c4 -12 3 -12 -5 -1 -7 9 -12 10 -16 2 -4 -6 -16 -11 -27 -11
-17 0 -18 2 -7 15 16 18 50 15 55 -5z m-937 -49 c0 -13 -58 -32 -65 -20 -4 5
-1 10 4 10 26 3 30 4 37 12 10 10 24 9 24 -2z m208 -7 c29 -8 28 -20 -2 -28
-30 -7 -56 2 -56 20 0 15 21 18 58 8z m211 -21 c6 -10 11 -15 11 -11 0 8 70
-62 70 -71 0 -3 26 -33 57 -66 32 -33 70 -74 85 -91 l27 -31 -62 -66 -62 -66
-18 22 c-10 12 -20 32 -23 45 -4 12 -10 22 -14 22 -4 0 -10 13 -13 29 -4 16
-15 49 -27 73 -24 52 -60 174 -60 205 0 27 15 30 29 6z m-399 -48 c0 -8 -6
-15 -13 -15 -7 0 -18 -9 -25 -20 -16 -25 -30 -19 -26 12 1 13 3 26 3 31 1 4
15 7 31 7 20 0 30 -5 30 -15z m206 -47 c8 -12 -24 -40 -37 -32 -5 3 -9 14 -9
25 0 21 34 27 46 7z m439 -8 c4 -6 15 -8 26 -5 15 5 19 1 19 -14 0 -12 5 -21
10 -21 6 0 10 -9 10 -19 0 -11 5 -23 10 -26 13 -8 13 -25 -1 -25 -6 0 -13 9
-16 20 -6 21 -28 27 -38 10 -13 -21 -35 -9 -55 30 -11 21 -20 44 -20 50 0 13
47 13 55 0z m-976 -52 c49 -18 70 -48 33 -48 -10 0 -23 -5 -29 -11 -8 -8 -15
-5 -25 10 -8 12 -18 18 -21 14 -4 -3 -7 6 -7 20 0 31 1 31 49 15z m340 -27
c15 -10 7 -31 -13 -31 -8 0 -19 6 -25 13 -19 23 9 36 38 18z m126 -27 c23 -21
26 -30 21 -71 -4 -41 -1 -49 23 -72 15 -14 30 -31 32 -38 6 -16 41 -20 46 -5
3 7 -4 12 -16 12 -24 0 -36 35 -28 80 4 16 2 32 -3 35 -18 11 0 25 30 25 40 0
50 -24 41 -93 -5 -37 -4 -60 3 -67 26 -26 -67 -49 -122 -31 -21 7 -80 13 -132
15 -52 1 -101 5 -108 10 -15 9 -16 41 0 65 12 19 12 19 68 -9 15 -8 24 -7 33
2 14 15 19 128 6 128 -5 0 -9 5 -9 10 0 6 6 10 14 10 7 0 19 6 25 14 15 18 43
10 76 -20z m-409 -61 c-7 -20 -59 -53 -84 -53 -15 1 -14 3 2 15 11 8 28 15 38
15 10 0 18 5 18 11 0 5 -4 7 -10 4 -5 -3 -10 -2 -10 2 0 8 42 31 48 27 2 -1 1
-11 -2 -21z m1457 -97 c4 -10 1 -13 -9 -9 -7 3 -14 9 -14 14 0 14 17 10 23 -5z
m-839 -2 c13 -5 14 -9 5 -20 -9 -11 -15 -11 -25 -3 -8 6 -11 15 -8 20 6 11 8
11 28 3z m596 -1 c-1 -20 -20 -34 -52 -39 -37 -7 -54 6 -44 31 6 16 96 22 96
8z m332 -85 c-11 -11 -12 -10 -7 3 3 9 -1 22 -10 29 -11 9 -15 9 -15 1 0 -7
-5 -9 -11 -5 -8 4 -7 9 2 15 9 5 21 1 34 -11 15 -16 17 -22 7 -32z m-288 7 c3
-8 1 -15 -4 -15 -6 0 -10 7 -10 15 0 8 2 15 4 15 2 0 6 -7 10 -15z m266 -1 c0
-8 -19 -13 -24 -6 -3 5 1 9 9 9 8 0 15 -2 15 -3z m-1607 -59 c1 -5 -6 -11 -15
-13 -11 -2 -18 3 -18 13 0 17 30 18 33 0z m1633 -83 c-22 -5 -30 3 -21 18 5 8
11 7 22 -2 15 -12 14 -13 -1 -16z m-837 -42 c1 -12 -1 -12 -14 1 -10 10 -13
22 -9 34 7 18 8 18 15 -1 4 -10 8 -26 8 -34z m1037 -4 c20 -21 17 -28 -6 -14
-11 7 -20 16 -20 20 0 12 10 9 26 -6z m-1726 -21 c-7 -8 -16 -12 -21 -9 -13 8
-1 24 18 24 13 0 13 -3 3 -15z m638 -27 c-2 -13 -11 -24 -23 -27 -11 -2 -24
-8 -28 -15 -6 -7 -7 -4 -3 7 3 10 0 17 -7 17 -17 1 32 40 50 40 9 0 13 -8 11
-22z m-721 -34 c3 -8 -2 -23 -11 -32 -15 -15 -17 -15 -33 1 -17 17 -17 19 1
33 25 18 35 18 43 -2z m1881 7 c10 -6 7 -12 -13 -25 -20 -13 -30 -15 -38 -7
-8 8 -6 11 6 11 9 0 17 7 17 15 0 17 9 19 28 6z m-1087 -151 c5 0 9 8 10 18 0
14 2 14 9 -3 6 -15 3 -25 -14 -40 -24 -21 -24 -55 0 -55 28 0 14 -31 -21 -46
-47 -19 -52 -18 -59 16 -8 42 -7 45 15 43 15 -2 19 3 19 27 0 17 5 30 10 30 6
0 11 15 11 33 2 30 2 30 6 5 2 -16 9 -28 14 -28z m-946 10 c3 -5 -1 -10 -9
-10 -9 0 -16 5 -16 10 0 6 4 10 9 10 6 0 13 -4 16 -10z m328 -123 c-3 -5 -10
-4 -15 1 -6 6 -7 16 -3 22 6 9 9 9 16 -1 4 -7 5 -17 2 -22z m2257 -7 c0 -5 -4
-10 -9 -10 -6 0 -13 5 -16 10 -3 6 1 10 9 10 9 0 16 -4 16 -10z m60 -9 c0 -26
-16 -35 -24 -15 -10 25 -7 34 9 34 8 0 15 -9 15 -19z"/>
<path d="M630 750 c0 -6 -11 -16 -25 -22 -30 -13 -34 -48 -6 -48 19 0 61 47
61 69 0 6 -7 11 -15 11 -8 0 -15 -5 -15 -10z"/>
<path d="M2930 2740 c0 -5 5 -10 10 -10 6 0 10 5 10 10 0 6 -4 10 -10 10 -5 0
-10 -4 -10 -10z"/>
<path d="M3305 2470 c-3 -5 -1 -10 4 -10 6 0 11 5 11 10 0 6 -2 10 -4 10 -3 0
-8 -4 -11 -10z"/>
<path d="M3322 2444 c-14 -16 -5 -18 17 -5 7 5 9 11 5 14 -5 3 -15 -1 -22 -9z"/>
<path d="M3310 2402 c0 -4 14 -13 30 -19 34 -13 39 -7 13 13 -20 15 -43 18
-43 6z"/>
<path d="M3302 2343 c-2 -22 0 -24 14 -13 12 11 18 10 32 -3 15 -15 15 -17 0
-17 -9 0 -27 -6 -41 -13 -20 -10 -23 -17 -15 -31 7 -12 17 -16 33 -12 18 5 25
1 30 -13 3 -10 5 -23 4 -27 -4 -24 2 -45 13 -42 7 3 12 26 12 56 1 52 -8 68
-18 35 -3 -10 -3 0 -1 22 5 47 -1 60 -36 73 -22 9 -25 7 -27 -15z m33 -63
c-28 -12 -37 -12 -30 0 3 6 16 10 28 9 21 0 21 -1 2 -9z"/>
<path d="M75 2321 c-6 -11 9 -23 19 -14 9 9 7 23 -3 23 -6 0 -12 -4 -16 -9z"/>
<path d="M40 2264 c0 -8 5 -12 10 -9 6 3 10 10 10 16 0 5 -4 9 -10 9 -5 0 -10
-7 -10 -16z"/>
<path d="M3327 2189 c3 -10 9 -16 14 -13 13 8 11 21 -5 27 -10 4 -12 0 -9 -14z"/>
<path d="M3397 2159 c-9 -6 -23 -9 -29 -8 -28 3 -37 -2 -31 -17 4 -11 8 -12
13 -4 4 7 10 -2 15 -22 7 -28 9 -30 12 -10 5 24 18 29 27 10 3 -7 3 -3 0 10
-4 17 0 24 17 30 17 7 19 10 8 14 -9 3 -23 2 -32 -3z"/>
<path d="M3392 2070 c0 -14 2 -19 5 -12 2 6 2 18 0 25 -3 6 -5 1 -5 -13z"/>
<path d="M3451 2074 c0 -11 3 -14 6 -6 3 7 2 16 -1 19 -3 4 -6 -2 -5 -13z"/>
<path d="M3416 2045 c-3 -8 -12 -15 -20 -15 -10 0 -13 -6 -10 -15 5 -13 10
-12 25 6 11 12 19 26 19 31 0 13 -7 9 -14 -7z"/>
<path d="M3416 1985 c-9 -26 -7 -32 5 -12 6 10 9 21 6 23 -2 3 -7 -2 -11 -11z"/>
<path d="M3361 1964 c0 -11 3 -14 6 -6 3 7 2 16 -1 19 -3 4 -6 -2 -5 -13z"/>
<path d="M3441 1934 c0 -11 3 -14 6 -6 3 7 2 16 -1 19 -3 4 -6 -2 -5 -13z"/>
<path d="M3060 1680 c0 -5 5 -10 10 -10 6 0 10 5 10 10 0 6 -4 10 -10 10 -5 0
-10 -4 -10 -10z"/>
<path d="M1496 1092 c-3 -5 1 -9 9 -9 8 0 12 4 9 9 -3 4 -7 8 -9 8 -2 0 -6 -4
-9 -8z"/>
<path d="M1535 1014 c4 -15 -2 -24 -20 -34 -19 -10 -24 -19 -19 -34 4 -12 10
-23 14 -26 5 -3 10 -16 11 -30 5 -33 30 -32 41 2 7 20 5 36 -6 60 -12 23 -13
35 -5 42 7 8 10 7 7 -3 -2 -7 3 -16 10 -18 10 -4 10 1 1 21 -7 14 -15 23 -20
21 -4 -3 -10 1 -13 7 -3 7 -4 4 -1 -8z"/>
<path d="M1576 952 c-4 -7 -1 -12 7 -12 20 0 24 -15 23 -87 -1 -38 3 -62 9
-60 6 2 10 15 10 28 0 15 5 23 13 21 8 -1 11 2 7 8 -3 6 -11 7 -17 4 -7 -5 -9
2 -6 19 3 17 1 24 -5 20 -6 -4 -8 0 -4 10 8 20 -27 65 -37 49z"/>
<path d="M1389 943 c-1 -5 -1 -11 0 -15 0 -5 -6 -8 -16 -8 -9 0 -14 -3 -10 -6
10 -10 47 7 47 22 0 14 -19 20 -21 7z"/>
<path d="M1684 790 c0 -13 4 -16 10 -10 7 7 7 13 0 20 -6 6 -10 3 -10 -10z"/>
<path d="M2983 406 c-11 -19 -108 -86 -124 -86 -8 0 -23 -7 -34 -16 -20 -15
-19 -16 15 -44 38 -32 70 -39 70 -15 0 18 34 20 48 3 5 -7 6 -22 2 -32 -11
-33 1 -66 31 -82 16 -8 29 -19 29 -24 0 -5 21 -24 48 -42 26 -18 56 -40 66
-50 11 -10 26 -18 33 -18 19 0 8 40 -32 120 -43 86 -81 178 -89 218 -4 17 -12
34 -17 37 -5 4 -9 15 -9 26 0 22 -25 26 -37 5z"/>
<path d="M600 202 c0 -28 24 -55 53 -58 37 -4 34 19 -3 33 -16 6 -30 18 -30
27 0 9 -4 16 -10 16 -5 0 -10 -8 -10 -18z"/>
<path d="M762 188 c6 -18 25 -20 31 -3 5 10 0 15 -14 15 -12 0 -19 -5 -17 -12z"/>
<path d="M200 52 c-19 -15 -20 -19 -7 -30 21 -18 47 -4 47 24 0 29 -10 30 -40
6z"/>
</g>
</svg>
